<svg width="512" height="512" viewBox="0 0 512 512" fill="none" xmlns="http://www.w3.org/2000/svg">
<rect x="0.5" y="0.5" width="511" height="511" rx="109.5" fill="url(#paint0_linear_0_1)" stroke="black"/>
<path d="M213.217 179.152C210.486 179.152 208.225 178.555 206.433 177.36C204.726 176.08 203.318 174.16 202.209 171.6L169.953 99.92C168.758 97.36 168.417 95.0987 168.929 93.136C169.441 91.088 170.508 89.5093 172.129 88.4C173.75 87.2053 175.713 86.608 178.017 86.608C180.918 86.608 183.137 87.2907 184.673 88.656C186.209 89.936 187.489 91.856 188.513 94.416L216.801 159.824H210.401L238.689 94.288C239.798 91.728 241.121 89.808 242.657 88.528C244.193 87.248 246.326 86.608 249.057 86.608C251.361 86.608 253.238 87.2053 254.689 88.4C256.225 89.5093 257.164 91.088 257.505 93.136C257.932 95.0987 257.59 97.36 256.481 99.92L224.225 171.6C223.03 174.16 221.58 176.08 219.873 177.36C218.252 178.555 216.033 179.152 213.217 179.152ZM272.47 179.152C269.91 179.152 267.777 178.469 266.07 177.104C264.449 175.653 263.51 173.904 263.254 171.856C262.998 169.723 263.681 167.547 265.302 165.328L293.59 127.824V136.656L266.454 100.56C264.833 98.256 264.107 96.08 264.278 94.032C264.534 91.8987 265.473 90.1493 267.094 88.784C268.801 87.3333 270.891 86.608 273.366 86.608C275.499 86.608 277.334 87.12 278.87 88.144C280.491 89.168 282.113 90.7893 283.734 93.008L304.854 122.192H298.454L319.446 93.008C321.067 90.704 322.689 89.0827 324.31 88.144C325.931 87.12 327.809 86.608 329.942 86.608C332.502 86.608 334.593 87.2907 336.214 88.656C337.921 90.0213 338.859 91.7707 339.03 93.904C339.286 95.952 338.561 98.1707 336.854 100.56L309.59 136.656V127.824L337.75 165.328C339.457 167.547 340.182 169.723 339.926 171.856C339.755 173.904 338.817 175.653 337.11 177.104C335.489 178.469 333.355 179.152 330.71 179.152C328.662 179.152 326.827 178.64 325.206 177.616C323.67 176.592 322.049 174.928 320.342 172.624L298.326 142.288H304.854L282.838 172.624C281.217 174.928 279.595 176.592 277.974 177.616C276.353 178.64 274.518 179.152 272.47 179.152ZM120.164 298C117.007 298 114.66 297.275 113.124 295.824C111.673 294.288 110.948 292.069 110.948 289.168C110.948 287.291 111.417 285.541 112.356 283.92C113.295 282.299 114.575 280.635 116.196 278.928L140.26 253.584C143.844 249.744 146.404 246.331 147.94 243.344C149.561 240.357 150.372 237.371 150.372 234.384C150.372 230.629 149.135 227.771 146.66 225.808C144.271 223.845 140.772 222.864 136.164 222.864C133.689 222.864 131.129 223.248 128.484 224.016C125.924 224.699 123.236 225.851 120.42 227.472C118.543 228.496 116.793 228.88 115.172 228.624C113.636 228.283 112.313 227.557 111.204 226.448C110.095 225.253 109.369 223.845 109.028 222.224C108.687 220.603 108.857 218.981 109.54 217.36C110.223 215.739 111.503 214.373 113.38 213.264C117.135 210.96 121.231 209.253 125.668 208.144C130.105 206.949 134.5 206.352 138.852 206.352C145.593 206.352 151.268 207.376 155.876 209.424C160.484 211.387 163.983 214.288 166.372 218.128C168.761 221.968 169.956 226.661 169.956 232.208C169.956 235.792 169.401 239.291 168.292 242.704C167.183 246.117 165.433 249.573 163.044 253.072C160.74 256.485 157.668 260.155 153.828 264.08L131.428 286.864V281.744H166.116C168.847 281.744 170.895 282.427 172.26 283.792C173.711 285.157 174.436 287.163 174.436 289.808C174.436 292.453 173.711 294.501 172.26 295.952C170.895 297.317 168.847 298 166.116 298H120.164ZM215.474 299.408C210.951 299.408 206.343 298.896 201.65 297.872C197.042 296.763 193.031 295.227 189.618 293.264C187.399 292.069 185.863 290.661 185.01 289.04C184.242 287.333 183.943 285.669 184.114 284.048C184.37 282.427 185.053 281.019 186.162 279.824C187.271 278.544 188.679 277.733 190.386 277.392C192.178 277.051 194.141 277.392 196.274 278.416C199.602 280.037 202.759 281.189 205.746 281.872C208.733 282.555 211.719 282.896 214.706 282.896C218.119 282.896 220.978 282.469 223.282 281.616C225.586 280.677 227.335 279.355 228.53 277.648C229.725 275.941 230.322 273.808 230.322 271.248C230.322 267.664 229.085 264.976 226.61 263.184C224.135 261.392 220.509 260.496 215.73 260.496H208.178C205.362 260.496 203.186 259.813 201.65 258.448C200.199 256.997 199.474 255.035 199.474 252.56C199.474 250 200.199 248.037 201.65 246.672C203.186 245.221 205.362 244.496 208.178 244.496H213.81C216.711 244.496 219.143 244.069 221.106 243.216C223.154 242.277 224.733 240.997 225.842 239.376C227.037 237.755 227.634 235.749 227.634 233.36C227.634 229.947 226.439 227.344 224.05 225.552C221.746 223.76 218.375 222.864 213.938 222.864C211.207 222.864 208.519 223.205 205.874 223.888C203.229 224.485 200.37 225.595 197.298 227.216C195.421 228.155 193.671 228.453 192.05 228.112C190.429 227.771 189.063 227.003 187.954 225.808C186.93 224.613 186.247 223.248 185.906 221.712C185.65 220.091 185.863 218.469 186.546 216.848C187.314 215.227 188.679 213.904 190.642 212.88C194.311 210.747 198.279 209.125 202.546 208.016C206.898 206.907 211.293 206.352 215.73 206.352C222.215 206.352 227.762 207.333 232.37 209.296C236.978 211.259 240.519 214.075 242.994 217.744C245.469 221.328 246.706 225.68 246.706 230.8C246.706 234.299 246.023 237.499 244.658 240.4C243.293 243.301 241.373 245.776 238.898 247.824C236.509 249.787 233.565 251.195 230.066 252.048V250.384C236.125 251.408 240.861 253.925 244.274 257.936C247.687 261.947 249.394 266.981 249.394 273.04C249.394 278.416 248.029 283.109 245.298 287.12C242.567 291.045 238.642 294.075 233.522 296.208C228.487 298.341 222.471 299.408 215.474 299.408ZM294.4 299.408C283.477 299.408 275.115 295.355 269.312 287.248C263.595 279.056 260.736 267.493 260.736 252.56C260.736 242.576 262.016 234.171 264.576 227.344C267.221 220.432 271.019 215.227 275.968 211.728C281.003 208.144 287.147 206.352 294.4 206.352C305.408 206.352 313.771 210.32 319.488 218.256C325.205 226.107 328.064 237.541 328.064 252.56C328.064 262.544 326.741 271.035 324.096 278.032C321.536 284.944 317.781 290.235 312.832 293.904C307.883 297.573 301.739 299.408 294.4 299.408ZM294.4 283.28C299.349 283.28 303.019 280.848 305.408 275.984C307.797 271.035 308.992 263.227 308.992 252.56C308.992 241.893 307.797 234.213 305.408 229.52C303.019 224.827 299.349 222.48 294.4 222.48C289.451 222.48 285.781 224.827 283.392 229.52C281.003 234.213 279.808 241.893 279.808 252.56C279.808 263.227 281.003 271.035 283.392 275.984C285.781 280.848 289.451 283.28 294.4 283.28ZM371.15 299.408C360.227 299.408 351.865 295.355 346.062 287.248C340.345 279.056 337.486 267.493 337.486 252.56C337.486 242.576 338.766 234.171 341.326 227.344C343.971 220.432 347.769 215.227 352.718 211.728C357.753 208.144 363.897 206.352 371.15 206.352C382.158 206.352 390.521 210.32 396.238 218.256C401.955 226.107 404.814 237.541 404.814 252.56C404.814 262.544 403.491 271.035 400.846 278.032C398.286 284.944 394.531 290.235 389.582 293.904C384.633 297.573 378.489 299.408 371.15 299.408ZM371.15 283.28C376.099 283.28 379.769 280.848 382.158 275.984C384.547 271.035 385.742 263.227 385.742 252.56C385.742 241.893 384.547 234.213 382.158 229.52C379.769 224.827 376.099 222.48 371.15 222.48C366.201 222.48 362.531 224.827 360.142 229.52C357.753 234.213 356.558 241.893 356.558 252.56C356.558 263.227 357.753 271.035 360.142 275.984C362.531 280.848 366.201 283.28 371.15 283.28ZM127.364 419.408C117.636 419.408 109.316 417.488 102.404 413.648C95.492 409.808 90.1587 404.432 86.404 397.52C82.7347 390.523 80.9 382.288 80.9 372.816C80.9 365.733 81.924 359.376 83.972 353.744C86.1053 348.027 89.1773 343.163 93.188 339.152C97.1987 335.056 102.063 331.899 107.78 329.68C113.583 327.461 120.111 326.352 127.364 326.352C131.631 326.352 135.94 326.907 140.292 328.016C144.729 329.04 148.569 330.533 151.812 332.496C153.945 333.691 155.396 335.184 156.164 336.976C156.932 338.768 157.145 340.56 156.804 342.352C156.548 344.144 155.823 345.68 154.628 346.96C153.519 348.24 152.111 349.051 150.404 349.392C148.697 349.733 146.777 349.349 144.644 348.24C142.084 346.704 139.396 345.595 136.58 344.912C133.764 344.229 130.905 343.888 128.004 343.888C122.287 343.888 117.465 345.04 113.54 347.344C109.7 349.563 106.799 352.805 104.836 357.072C102.873 361.339 101.892 366.587 101.892 372.816C101.892 378.96 102.873 384.208 104.836 388.56C106.799 392.912 109.7 396.24 113.54 398.544C117.465 400.763 122.287 401.872 128.004 401.872C130.735 401.872 133.508 401.531 136.324 400.848C139.225 400.165 141.999 399.099 144.644 397.648C146.863 396.539 148.825 396.155 150.532 396.496C152.324 396.752 153.775 397.52 154.884 398.8C156.079 399.995 156.804 401.445 157.06 403.152C157.401 404.859 157.231 406.565 156.548 408.272C155.865 409.979 154.585 411.429 152.708 412.624C149.551 414.757 145.668 416.421 141.06 417.616C136.452 418.811 131.887 419.408 127.364 419.408ZM209.944 419.408C201.069 419.408 193.261 417.488 186.52 413.648C179.864 409.723 174.659 404.261 170.904 397.264C167.235 390.267 165.4 382.117 165.4 372.816C165.4 365.733 166.424 359.376 168.472 353.744C170.605 348.027 173.635 343.163 177.56 339.152C181.485 335.056 186.179 331.899 191.64 329.68C197.187 327.461 203.288 326.352 209.944 326.352C218.989 326.352 226.84 328.272 233.496 332.112C240.152 335.952 245.315 341.371 248.984 348.368C252.739 355.28 254.616 363.387 254.616 372.688C254.616 379.771 253.549 386.171 251.416 391.888C249.283 397.605 246.253 402.512 242.328 406.608C238.403 410.704 233.709 413.861 228.248 416.08C222.787 418.299 216.685 419.408 209.944 419.408ZM209.944 402.512C214.979 402.512 219.245 401.36 222.744 399.056C226.328 396.667 229.059 393.253 230.936 388.816C232.899 384.293 233.88 378.96 233.88 372.816C233.88 363.429 231.789 356.176 227.608 351.056C223.427 345.851 217.539 343.248 209.944 343.248C204.995 343.248 200.728 344.4 197.144 346.704C193.56 349.008 190.829 352.379 188.952 356.816C187.075 361.253 186.136 366.587 186.136 372.816C186.136 382.117 188.227 389.413 192.408 394.704C196.589 399.909 202.435 402.512 209.944 402.512ZM280.331 418C277.003 418 274.443 417.104 272.651 415.312C270.859 413.52 269.963 410.96 269.963 407.632V338.128C269.963 334.8 270.859 332.24 272.651 330.448C274.443 328.656 277.003 327.76 280.331 327.76H305.291C320.736 327.76 332.64 331.685 341.003 339.536C349.451 347.301 353.675 358.395 353.675 372.816C353.675 380.069 352.566 386.512 350.347 392.144C348.214 397.691 345.099 402.384 341.003 406.224C336.907 410.064 331.872 413.008 325.899 415.056C319.926 417.019 313.056 418 305.291 418H280.331ZM289.803 401.744H304.139C309.003 401.744 313.227 401.147 316.811 399.952C320.395 398.757 323.382 396.965 325.771 394.576C328.16 392.187 329.952 389.2 331.147 385.616C332.342 381.947 332.939 377.68 332.939 372.816C332.939 363.088 330.507 355.877 325.643 351.184C320.864 346.405 313.696 344.016 304.139 344.016H289.803V401.744ZM379.456 418C376.128 418 373.568 417.104 371.776 415.312C369.984 413.52 369.088 410.96 369.088 407.632V338.128C369.088 334.8 369.984 332.24 371.776 330.448C373.568 328.656 376.128 327.76 379.456 327.76H424.128C426.688 327.76 428.608 328.443 429.888 329.808C431.253 331.088 431.936 332.965 431.936 335.44C431.936 338 431.253 339.963 429.888 341.328C428.608 342.608 426.688 343.248 424.128 343.248H388.032V364.368H421.184C423.829 364.368 425.792 365.051 427.072 366.416C428.437 367.696 429.12 369.616 429.12 372.176C429.12 374.736 428.437 376.699 427.072 378.064C425.792 379.344 423.829 379.984 421.184 379.984H388.032V402.512H424.128C426.688 402.512 428.608 403.195 429.888 404.56C431.253 405.84 431.936 407.717 431.936 410.192C431.936 412.752 431.253 414.715 429.888 416.08C428.608 417.36 426.688 418 424.128 418H379.456Z" fill="white"/>
<defs>
<linearGradient id="paint0_linear_0_1" x1="256" y1="0" x2="256" y2="512" gradientUnits="userSpaceOnUse">
<stop stop-color="#018BF4"/>
<stop offset="1" stop-color="#01518E"/>
</linearGradient>
</defs>
</svg>
